<svg xmlns="http://www.w3.org/2000/svg" xmlns:xlink="http://www.w3.org/1999/xlink" width="900" height="600" viewBox="-72 -48 144 96"><defs><rect id="b1" width="24" height="4" x="-12" y="-2"/><g id="b2"><rect width="11" height="4" x="-12" y="-2"/><rect width="11" height="4" x="1" y="-2"/></g></defs><rect width="100%" height="100%" x="-50%" y="-50%" fill="#fff"/><g transform="rotate(56.31)"><use transform="translate(0,-38)" xlink:href="#b2"/><use transform="translate(0,-44)" xlink:href="#b1"/><use transform="translate(0,-50)" xlink:href="#b2"/><use transform="translate(0,38)" xlink:href="#b1"/><use transform="translate(0,44)" xlink:href="#b2"/><use transform="translate(0,50)" xlink:href="#b1"/></g><g transform="rotate(-56.31)"><use transform="translate(0,-38)" xlink:href="#b1"/><use transform="translate(0,-44)" xlink:href="#b1"/><use transform="translate(0,-50)" xlink:href="#b1"/><use transform="translate(0,38)" xlink:href="#b2"/><use transform="translate(0,44)" xlink:href="#b2"/><use transform="translate(0,50)" xlink:href="#b2"/><path fill="#c60c30" d="M 0,24 A 24,24 0 0,0 0,-24 A 18,18 0 0,0 0,12"/><path fill="#003478" d="M 0,-24 A 12,12 0 0,0 0,0 A 12,12 0 0,1 0,24 A 24,24 0 0,1 0,-24"/></g></svg>