<svg xmlns="http://www.w3.org/2000/svg" id="svg2" width="672" height="448" version="1.1" viewBox="0 0 168 112"><metadata id="metadata23"/><rect id="rect11" width="168" height="112" x="0" y="0" fill="#fff"/><rect id="rect4325-2-3-2" width="168" height="8" x="0" y="80" fill="#dc241f"/><rect id="rect4325-25-7" width="168" height="8" x="0" y="64" fill="#dc241f"/><rect id="rect4325-2-3" width="168" height="8" x="0" y="48" fill="#dc241f"/><rect id="rect4325-25" width="168" height="8" x="0" y="32" fill="#dc241f"/><rect id="rect4325-2" width="168" height="8" x="0" y="16" fill="#dc241f"/><rect id="rect4325" width="168" height="8" x="0" y="0" fill="#dc241f"/><rect id="rect13" width="83.627" height="64" x="0" y="0" fill="#0035ad"/><circle id="circle15" cx="46" cy="32" r="24" fill="#ffd100" d="M 70,32 C 70,45.254834 59.254834,56 46,56 C 32.745166,56 22,45.254834 22,32 C 22,18.745166 32.745166,8 46,8 C 59.254834,8 70,18.745166 70,32 z" transform="translate(-13.936)"/><circle id="circle17" cx="51" cy="32" r="21" fill="#0035ad" d="M 72,32 C 72,43.59798 62.59798,53 51,53 C 39.40202,53 30,43.59798 30,32 C 30,20.40202 39.40202,11 51,11 C 62.59798,11 72,20.40202 72,32 z" transform="translate(-13.936)"/><path id="polygon19" fill="#ffd100" d="m51.076 38.255l-10.649 6.215 8.429-8.999-12.291 0.979 11.499-4.45-11.499-4.45 12.291 0.979-8.429-8.999 10.649 6.215-3.69-11.764 6.898 10.22 1.78-12.201 1.78 12.201 6.898-10.22-3.69 11.764 10.649-6.215-8.429 8.999 12.291-0.979-11.499 4.45 11.499 4.45-12.291-0.979 8.429 8.999-10.649-6.215 3.69 11.764-6.898-10.22-1.78 12.201-1.78-12.201-6.898 10.22z"/><rect id="rect4325-2-3-2-9" width="168" height="8" x="0" y="96" fill="#dc241f"/></svg>