<svg xmlns="http://www.w3.org/2000/svg" xmlns:svg="http://www.w3.org/2000/svg" id="svg2" width="900" height="600" version="1.0"><metadata id="metadata7"/><g id="layer1" transform="translate(0,-376.86072)"><g id="g1956" style="stroke:none"><g id="g4183"><rect style="fill:#d00;fill-opacity:1;fill-rule:nonzero;stroke:none;stroke-opacity:1" id="rect1872" width="900" height="600" x="0" y="376.861"/><g id="g4172" transform="translate(-30.470867,0)"><ellipse id="path4530" cx="476.571" cy="698.575" rx="186.286" ry="183.429" style="fill:#fff;fill-opacity:1;fill-rule:nonzero;stroke:none;stroke-opacity:1"/><g id="g1945" transform="matrix(1.0057747,0,0,1.1138644,302.16303,413.68159)" style="stroke:none"><g id="layer2" transform="translate(-15.15542,-17.54026)" style="stroke:none"><g id="g1886" style="stroke:none"><path id="path931" d="m 188.99078,375.57092 c 21.98812,-33.28511 42.04006,-52.32832 64.02818,-85.61344 C 247.99642,269.21596 227.20355,280.84699 189.77439,21.905364 C 147.46705,282.80556 124.77461,271.48927 122.58191,288.03783 c 21.49014,33.92568 44.91872,53.60845 66.40887,87.53309 z" style="font-size:12px;fill:#000;fill-opacity:1;fill-rule:evenodd;stroke:none;stroke-width:8.7302103;stroke-linecap:butt;stroke-linejoin:miter;stroke-miterlimit:19.60000038;stroke-dasharray:none;stroke-opacity:0"/><path id="path943" d="m 111.11807,308.50231 c 16.74081,23.26538 47.92685,55.49665 64.66763,78.76202 C 75.019018,393.34342 54.282043,415.30659 19.856289,447.76699 C 13.705668,340.18531 93.013415,340.72001 111.11807,308.50231 Z" style="font-size:12px;fill:#000;fill-opacity:1;fill-rule:evenodd;stroke:none;stroke-width:8.72338676;stroke-linecap:butt;stroke-linejoin:miter;stroke-miterlimit:4;stroke-dasharray:none;stroke-opacity:0"/><path id="path944" d="m 202.79551,386.70297 c 19.41951,-25.24811 43.79091,-55.641 63.2104,-80.88912 c 32.85044,60.94726 75.58711,79.63235 115.52691,82.66587 c -31.1994,39.76059 -111.38131,35.25793 -178.73731,-1.77675 z" style="font-size:12px;fill:#000;fill-opacity:1;fill-rule:evenodd;stroke:none;stroke-width:8.5976038;stroke-linecap:butt;stroke-linejoin:miter;stroke-miterlimit:4;stroke-dasharray:none;stroke-opacity:0"/></g></g></g></g></g></g></g></svg>