<svg xmlns="http://www.w3.org/2000/svg" xmlns:svg="http://www.w3.org/2000/svg" id="svg18998" width="18.913" height="9.661" version="1.1"><metadata id="metadata19003"/><g id="layer1" transform="translate(-365.54375,-527.5315)"><g id="g1768" transform="matrix(1.25,0,0,-1.25,369.60875,530.99412)"><path d="M 0,0 L 0,2.266 L -0.503,2.266 C -1.779,2.266 -2.876,1.314 -2.876,0.234 L -2.876,0 L 0,0 z M 1.275,-3.846 C 1.275,-4.457 0.774,-4.959 0.163,-4.959 C -0.448,-4.959 -0.952,-4.457 -0.952,-3.846 C -0.952,-3.234 -0.448,-2.73 0.163,-2.73 C 0.774,-2.73 1.275,-3.234 1.275,-3.846 M 3.575,2.266 L 0.503,2.266 L 0.503,0 L 3.575,0 L 3.575,2.266 z M 7.136,2.266 L 4.08,2.266 L 4.08,0 L 7.136,0 L 7.136,2.266 z M 9.759,-3.846 C 9.759,-4.457 9.256,-4.959 8.645,-4.959 C 8.033,-4.959 7.531,-4.457 7.531,-3.846 C 7.531,-3.234 8.033,-2.73 8.645,-2.73 C 9.256,-2.73 9.759,-3.234 9.759,-3.846 M 7.638,0 L 10.677,0 C 10.514,0.199 9.417,2.266 8.682,2.266 L 7.638,2.266 L 7.638,0 z M 10.405,-3.359 C 10.01,-2.461 9.417,-2.029 8.626,-2.029 C 7.782,-2.029 7.206,-2.48 6.882,-3.359 L 1.977,-3.359 C 1.565,-2.461 1.007,-2.029 0.216,-2.029 C -0.593,-2.029 -1.151,-2.461 -1.491,-3.359 L -3.252,-3.359 L -3.252,0.305 C -3.252,2.158 -1.563,2.77 -0.809,2.77 L 8.878,2.77 C 9.866,2.787 10.962,0.521 11.34,0.182 C 11.788,-0.213 11.878,-0.592 11.878,-0.791 L 11.878,-3.359 L 10.405,-3.359 z" style="fill:#231f20;fill-opacity:1;fill-rule:nonzero;stroke:none" id="path1770"/></g></g></svg>